<?xml version="1.0" standalone="no"?>
<!DOCTYPE svg PUBLIC "-//W3C//DTD SVG 20010904//EN"
 "http://www.w3.org/TR/2001/REC-SVG-20010904/DTD/svg10.dtd">
<svg version="1.0" xmlns="http://www.w3.org/2000/svg"
 width="64.000000pt" height="64.000000pt" viewBox="0 0 64.000000 64.000000"
 preserveAspectRatio="xMidYMid meet">

<g transform="translate(0.000000,64.000000) scale(0.100000,-0.100000)"
fill="#000000" stroke="none">
<path d="M120 630 c-8 -5 -25 -7 -38 -3 -31 7 -55 -15 -47 -44 3 -14 -3 -43
-15 -70 -37 -83 -21 -141 46 -169 19 -8 34 -20 34 -26 0 -7 -23 -33 -50 -59
-51 -48 -63 -82 -38 -107 19 -19 56 -14 70 8 14 23 48 27 48 7 0 -18 -29 -44
-54 -48 -28 -6 -43 -35 -30 -56 14 -22 84 -29 137 -13 20 6 60 31 88 55 36 33
58 45 81 45 25 0 28 -2 18 -14 -6 -8 -21 -16 -33 -18 -12 -2 -26 -13 -32 -25
-6 -14 -20 -23 -39 -25 -37 -4 -55 -30 -37 -52 10 -12 33 -16 92 -16 153 0
237 38 289 130 36 65 35 161 -2 217 -39 59 -85 84 -171 92 l-72 6 -28 55 c-19
39 -26 64 -22 86 7 42 -15 62 -50 46 -17 -8 -33 -8 -51 -2 -32 13 -74 13 -94
0z m95 -20 c18 -7 33 -7 47 1 14 8 23 8 31 0 8 -8 6 -11 -9 -12 -10 0 -13 -3
-6 -6 6 -2 10 -9 7 -13 -9 -14 54 -139 75 -150 10 -6 40 -10 67 -10 136 -1
225 -123 178 -246 -41 -107 -113 -149 -260 -149 -112 0 -125 18 -18 25 95 7
119 19 144 73 19 44 25 97 10 97 -5 0 -11 -12 -14 -27 -5 -28 -6 -28 -80 -25
l-75 3 -51 -45 c-55 -49 -106 -70 -161 -64 -39 3 -50 31 -14 36 12 2 32 14 45
28 22 23 22 27 9 72 -7 26 -15 67 -18 92 -5 51 -16 70 -43 70 -21 0 -59 37
-59 57 0 7 9 13 20 13 28 0 25 20 -2 21 l-23 2 22 4 c26 5 31 23 8 23 -17 0
-18 4 -7 28 30 61 44 78 74 94 37 20 65 22 103 8z"/>
<path d="M62 514 c2 -11 11 -20 22 -22 13 -3 17 1 14 14 -2 11 -11 20 -22 22
-13 3 -17 -1 -14 -14z"/>
<path d="M193 515 c-3 -9 -3 -18 0 -22 10 -10 37 6 37 22 0 20 -29 20 -37 0z"/>
<path d="M105 490 c-3 -5 -1 -19 5 -31 11 -19 10 -20 -10 -14 -16 5 -21 3 -18
-6 3 -9 20 -14 48 -14 28 0 45 5 48 14 3 9 -2 11 -18 6 -20 -6 -21 -5 -10 14
13 26 6 41 -20 41 -10 0 -22 -4 -25 -10z"/>
<path d="M210 470 c0 -5 14 -10 30 -10 17 0 30 5 30 10 0 6 -13 10 -30 10 -16
0 -30 -4 -30 -10z"/>
<path d="M210 440 c0 -5 14 -10 30 -10 17 0 30 5 30 10 0 6 -13 10 -30 10 -16
0 -30 -4 -30 -10z"/>
</g>
</svg>
