<?xml version="1.0" standalone="no"?>
<!DOCTYPE svg PUBLIC "-//W3C//DTD SVG 20010904//EN"
 "http://www.w3.org/TR/2001/REC-SVG-20010904/DTD/svg10.dtd">
<svg version="1.0" xmlns="http://www.w3.org/2000/svg"
 width="64.000000pt" height="64.000000pt" viewBox="0 0 64.000000 64.000000"
 preserveAspectRatio="xMidYMid meet">

<g transform="translate(0.000000,64.000000) scale(0.100000,-0.100000)"
fill="#000000" stroke="none">
<path d="M200 545 c-7 -8 -18 -15 -24 -15 -19 0 -73 -52 -93 -89 -18 -34 -31
-44 -65 -55 -16 -5 -18 -20 -18 -129 0 -118 1 -125 25 -151 l24 -26 211 0
c133 0 210 4 210 10 0 6 -75 10 -205 10 -192 0 -206 1 -225 20 -19 19 -29 80
-12 80 4 0 16 -7 26 -15 28 -21 71 -18 117 8 l39 22 39 -22 c49 -28 88 -29
121 -3 32 25 61 25 93 0 32 -25 74 -25 112 0 41 27 45 25 45 -15 0 -50 -28
-75 -85 -75 -25 0 -45 -4 -45 -10 0 -11 79 -14 105 -4 33 13 45 59 45 179 0
101 -2 116 -17 121 -33 10 -48 22 -45 35 12 49 13 107 2 114 -6 4 -43 9 -80
11 -63 4 -71 2 -94 -21 -30 -30 -31 -34 -10 -63 8 -12 11 -22 6 -22 -6 0 -12
7 -16 15 -3 8 -13 15 -22 15 -9 0 -22 7 -28 15 -9 13 -11 2 -11 -47 0 -75 -19
-107 -81 -138 -55 -27 -90 -26 -118 6 -59 66 -66 78 -48 86 4 2 20 24 35 49
17 31 39 52 64 64 21 10 41 23 45 29 5 8 12 7 25 -2 46 -32 72 -26 32 7 -29
24 -62 27 -79 6z m257 -92 c-12 -12 -16 -11 -31 12 -19 29 -14 43 18 54 18 7
21 5 24 -22 2 -16 -3 -36 -11 -44z m106 64 c8 8 9 -30 1 -50 -7 -20 -61 0 -68
26 -5 21 32 41 50 26 6 -5 14 -6 17 -2z m-182 -127 c5 0 12 7 15 15 4 9 19 15
35 15 17 0 40 7 54 16 22 14 25 14 44 -5 34 -34 26 -133 -9 -111 -25 16 -73
11 -105 -10 -35 -23 -54 -25 -79 -7 -17 12 -17 16 -4 43 9 16 19 47 24 69 l8
40 4 -32 c2 -18 8 -33 13 -33z m239 -55 c0 -33 -13 -45 -50 -45 -16 0 -17 4
-8 33 6 17 12 37 14 44 2 6 12 9 23 6 16 -4 21 -13 21 -38z m-563 16 c10 -16
9 -20 -13 -24 -20 -3 -24 0 -24 19 0 29 21 31 37 5z m47 -62 c41 -32 96 -36
150 -9 42 20 47 20 68 6 30 -21 67 -20 103 4 38 25 60 25 96 -1 21 -15 41 -20
64 -17 31 4 35 1 35 -19 0 -13 -6 -23 -12 -23 -7 0 -24 -9 -38 -20 -14 -11
-36 -20 -50 -20 -14 0 -36 9 -50 20 -32 25 -67 25 -105 0 -38 -25 -70 -25
-102 0 -32 25 -70 25 -108 0 -38 -25 -59 -25 -101 1 -27 17 -34 27 -34 53 0
18 3 36 7 39 13 14 51 7 77 -14z"/>
<path d="M242 468 c6 -18 28 -21 28 -4 0 9 -7 16 -16 16 -9 0 -14 -5 -12 -12z"/>
<path d="M217 409 c-22 -13 -23 -59 -1 -59 10 0 14 -5 10 -15 -10 -28 23 -29
50 -1 19 18 24 31 19 43 -8 17 -8 17 -12 1 -3 -10 -8 -18 -13 -18 -4 0 -6 9
-3 19 6 25 -25 43 -50 30z"/>
<path d="M132 358 c6 -18 28 -21 28 -4 0 9 -7 16 -16 16 -9 0 -14 -5 -12 -12z"/>
</g>
</svg>
