<?xml version="1.0" standalone="no"?>
<!DOCTYPE svg PUBLIC "-//W3C//DTD SVG 20010904//EN"
 "http://www.w3.org/TR/2001/REC-SVG-20010904/DTD/svg10.dtd">
<svg version="1.0" xmlns="http://www.w3.org/2000/svg"
 width="64.000000pt" height="64.000000pt" viewBox="0 0 64.000000 64.000000"
 preserveAspectRatio="xMidYMid meet">

<g transform="translate(0.000000,64.000000) scale(0.100000,-0.100000)"
fill="#000000" stroke="none">
<path d="M64 605 c-3 -7 -5 -19 -3 -26 5 -40 -2 -59 -21 -59 -11 0 -20 -4 -20
-10 0 -5 9 -10 20 -10 26 0 25 -14 -2 -33 -13 -8 -20 -18 -16 -22 4 -4 14 -3
21 4 12 9 15 -13 19 -141 3 -84 9 -161 13 -171 5 -12 3 -17 -8 -17 -20 0 -47
-27 -47 -46 0 -23 91 -19 123 6 25 20 25 20 20 0 -5 -18 0 -20 44 -20 54 0 96
24 108 60 5 17 15 20 66 20 33 0 59 -4 59 -10 0 -5 -6 -10 -14 -10 -19 0 -46
-27 -46 -46 0 -8 6 -14 14 -14 9 0 12 -7 9 -20 -5 -18 0 -20 53 -20 74 0 123
23 146 70 26 50 26 250 0 300 -35 72 -122 86 -232 39 -43 -18 -53 -20 -60 -8
-6 8 -4 17 3 22 9 6 6 12 -10 24 -28 19 -29 33 -3 33 11 0 20 5 20 10 0 6 -9
10 -20 10 -14 0 -20 7 -21 23 -3 79 7 72 -107 74 -78 1 -104 -1 -108 -12z
m146 -456 c13 -23 13 -24 -16 -33 -18 -6 -20 -3 -16 24 5 35 17 38 32 9z"/>
</g>
</svg>
